<?xml version="1.0" encoding="UTF-8" standalone="no"?>
<svg
   height="48px"
   viewBox="0 -960 960 960"
   width="48px"
   fill="#000000"
   version="1.1"
   id="svg1"
   sodipodi:docname="add_photo_alternate_124dp_000000_FILL0_wght600_GRAD0_opsz48_bright.svg"
   inkscape:version="1.4.3 (0d15f75042, 2025-12-25)"
   xmlns:inkscape="http://www.inkscape.org/namespaces/inkscape"
   xmlns:sodipodi="http://sodipodi.sourceforge.net/DTD/sodipodi-0.dtd"
   xmlns="http://www.w3.org/2000/svg"
   xmlns:svg="http://www.w3.org/2000/svg">
  <defs
     id="defs1" />
  <sodipodi:namedview
     id="namedview1"
     pagecolor="#ffffff"
     bordercolor="#000000"
     borderopacity="0.25"
     inkscape:showpageshadow="2"
     inkscape:pageopacity="0.0"
     inkscape:pagecheckerboard="0"
     inkscape:deskcolor="#d1d1d1"
     inkscape:zoom="38.1875"
     inkscape:cx="23.986907"
     inkscape:cy="24"
     inkscape:window-width="3840"
     inkscape:window-height="2088"
     inkscape:window-x="0"
     inkscape:window-y="0"
     inkscape:window-maximized="1"
     inkscape:current-layer="svg1" />
  <path
     d="M480-480ZM185.09-105.87q-32.51 0-55.87-23.35-23.35-23.36-23.35-55.87v-589.82q0-32.74 23.35-56.26 23.36-23.53 55.87-23.53h358.78V-774.91H185.09v589.82h589.82v-358.78H854.7v358.78q0 32.51-23.53 55.87-23.52 23.35-56.26 23.35H185.09ZM240-282h480L576-474 449-307l-94-124-115 149Zm456.11-321.87v-91.52h-92.24v-66.22h92.52v-93.09h66.22v93.09h92.09v66.5h-92.09v91.24h-66.5Z"
     id="path1"
     style="fill:#ececec" />
</svg>
