<?xml version="1.0" encoding="UTF-8" standalone="no"?>
<svg
   height="48px"
   viewBox="0 -960 960 960"
   width="48px"
   fill="#000000"
   version="1.1"
   id="svg1"
   sodipodi:docname="cancel_124dp_000000_FILL0_wght600_GRAD0_opsz48_bright.svg"
   inkscape:version="1.4.3 (0d15f75042, 2025-12-25)"
   xmlns:inkscape="http://www.inkscape.org/namespaces/inkscape"
   xmlns:sodipodi="http://sodipodi.sourceforge.net/DTD/sodipodi-0.dtd"
   xmlns="http://www.w3.org/2000/svg"
   xmlns:svg="http://www.w3.org/2000/svg">
  <defs
     id="defs1" />
  <sodipodi:namedview
     id="namedview1"
     pagecolor="#ffffff"
     bordercolor="#000000"
     borderopacity="0.25"
     inkscape:showpageshadow="2"
     inkscape:pageopacity="0.0"
     inkscape:pagecheckerboard="0"
     inkscape:deskcolor="#d1d1d1"
     inkscape:zoom="38.1875"
     inkscape:cx="24"
     inkscape:cy="24"
     inkscape:window-width="3840"
     inkscape:window-height="2088"
     inkscape:window-x="0"
     inkscape:window-y="0"
     inkscape:window-maximized="1"
     inkscape:current-layer="svg1" />
  <path
     d="M334.52-288 480-433.48 625.48-288 672-334.52 526.52-480 672-625.48 625.48-672 480-526.52 334.52-672 288-625.48 433.48-480 288-334.52 334.52-288ZM480.08-65.87q-85.47 0-161.01-32.39-75.53-32.4-131.97-88.84-56.44-56.44-88.84-131.89-32.39-75.46-32.39-160.93 0-86.47 32.39-162.01 32.4-75.53 88.75-131.5t131.85-88.62q75.5-32.65 161.01-32.65 86.52 0 162.12 32.61 75.61 32.6 131.53 88.5 55.93 55.89 88.55 131.45Q894.7-566.58 894.7-480q0 85.55-32.65 161.07-32.65 75.53-88.62 131.9-55.97 56.37-131.42 88.77-75.46 32.39-161.93 32.39Zm-.08-79.22q139.74 0 237.33-97.73 97.58-97.73 97.58-237.18 0-139.74-97.58-237.33-97.59-97.58-237.61-97.58-139.02 0-236.83 97.58-97.8 97.59-97.8 237.61 0 139.02 97.73 236.83 97.73 97.8 237.18 97.8ZM480-480Z"
     id="path1"
     style="fill:#ececec" />
</svg>
