<?xml version="1.0" encoding="UTF-8" standalone="no"?>
<svg
   height="48px"
   viewBox="0 -960 960 960"
   width="48px"
   fill="#000000"
   version="1.1"
   id="svg1"
   sodipodi:docname="code_blocks_brigth.svg"
   inkscape:version="1.4.3 (0d15f75042, 2025-12-25)"
   xmlns:inkscape="http://www.inkscape.org/namespaces/inkscape"
   xmlns:sodipodi="http://sodipodi.sourceforge.net/DTD/sodipodi-0.dtd"
   xmlns="http://www.w3.org/2000/svg"
   xmlns:svg="http://www.w3.org/2000/svg">
  <defs
     id="defs1" />
  <sodipodi:namedview
     id="namedview1"
     pagecolor="#ffffff"
     bordercolor="#000000"
     borderopacity="0.25"
     inkscape:showpageshadow="2"
     inkscape:pageopacity="0.0"
     inkscape:pagecheckerboard="0"
     inkscape:deskcolor="#d1d1d1"
     inkscape:zoom="38.1875"
     inkscape:cx="24.013093"
     inkscape:cy="24"
     inkscape:window-width="3840"
     inkscape:window-height="2088"
     inkscape:window-x="0"
     inkscape:window-y="0"
     inkscape:window-maximized="1"
     inkscape:current-layer="svg1" />
  <path
     d="m379-343 44.57-44-93-93L422-571.43l-44.57-44L242-479.72 379-343Zm202 0 137-137-137-137-44.57 44 93 93-93 93L581-343ZM185.09-105.87q-32.51 0-55.87-23.35-23.35-23.36-23.35-55.87v-589.82q0-32.74 23.35-56.26 23.36-23.53 55.87-23.53h589.82q32.74 0 56.26 23.53 23.53 23.52 23.53 56.26v589.82q0 32.51-23.53 55.87-23.52 23.35-56.26 23.35H185.09Zm0-79.22h589.82v-589.82H185.09v589.82Zm0-589.82v589.82-589.82Z"
     id="path1"
     style="fill:#ececec" />
</svg>
