<?xml version="1.0" encoding="UTF-8" standalone="no"?>
<svg
   height="48px"
   viewBox="0 -960 960 960"
   width="48px"
   fill="#000000"
   version="1.1"
   id="svg1"
   sodipodi:docname="edit_square_124dp_000000_FILL0_wght600_GRAD0_opsz48_bright.svg"
   inkscape:version="1.4.3 (0d15f75042, 2025-12-25)"
   xmlns:inkscape="http://www.inkscape.org/namespaces/inkscape"
   xmlns:sodipodi="http://sodipodi.sourceforge.net/DTD/sodipodi-0.dtd"
   xmlns="http://www.w3.org/2000/svg"
   xmlns:svg="http://www.w3.org/2000/svg">
  <defs
     id="defs1" />
  <sodipodi:namedview
     id="namedview1"
     pagecolor="#ffffff"
     bordercolor="#000000"
     borderopacity="0.25"
     inkscape:showpageshadow="2"
     inkscape:pageopacity="0.0"
     inkscape:pagecheckerboard="0"
     inkscape:deskcolor="#d1d1d1"
     inkscape:zoom="38.1875"
     inkscape:cx="24"
     inkscape:cy="24"
     inkscape:window-width="3840"
     inkscape:window-height="2088"
     inkscape:window-x="0"
     inkscape:window-y="0"
     inkscape:window-maximized="1"
     inkscape:current-layer="svg1" />
  <path
     d="M185.09-105.87q-32.51 0-55.87-23.35-23.35-23.36-23.35-55.87v-589.82q0-32.74 23.35-56.26 23.36-23.53 55.87-23.53h404.43l-79.22 79.79H185.09v589.82h589.82v-327.08l79.79-79.79v406.87q0 32.51-23.53 55.87-23.52 23.35-56.26 23.35H185.09ZM480-480ZM353.22-353.22v-179.61L729-908.04q11.83-11.83 26.24-17.24 14.41-5.42 29.38-5.42 14.34 0 29.33 5.92 14.99 5.91 27.18 17.74l64.91 65.34q12 12.35 18.11 26.73 6.11 14.39 6.11 29.27 0 15.07-6.11 30.45-6.11 15.38-18.11 27.38L532.83-353.22H353.22Zm509.13-432.35L784-863.35l78.35 77.78ZM424.52-424.52h78.78l249.05-249.05-39.4-39.17-39.82-38.61L424.52-504.3v79.78Zm288.43-288.22-39.82-38.61 39.82 38.61 39.4 39.17-39.4-39.17Z"
     id="path1"
     style="fill:#ececec" />
</svg>
