<?xml version="1.0" encoding="UTF-8" standalone="no"?>
<svg
   height="24px"
   viewBox="0 -960 960 960"
   width="24px"
   fill="#1f1f1f"
   version="1.1"
   id="svg1"
   sodipodi:docname="emoji_brigth.svg"
   inkscape:version="1.4.3 (0d15f75042, 2025-12-25)"
   xmlns:inkscape="http://www.inkscape.org/namespaces/inkscape"
   xmlns:sodipodi="http://sodipodi.sourceforge.net/DTD/sodipodi-0.dtd"
   xmlns="http://www.w3.org/2000/svg"
   xmlns:svg="http://www.w3.org/2000/svg">
  <defs
     id="defs1" />
  <sodipodi:namedview
     id="namedview1"
     pagecolor="#ffffff"
     bordercolor="#000000"
     borderopacity="0.25"
     inkscape:showpageshadow="2"
     inkscape:pageopacity="0.0"
     inkscape:pagecheckerboard="0"
     inkscape:deskcolor="#d1d1d1"
     inkscape:zoom="76.375"
     inkscape:cx="12"
     inkscape:cy="12"
     inkscape:window-width="3840"
     inkscape:window-height="2088"
     inkscape:window-x="0"
     inkscape:window-y="0"
     inkscape:window-maximized="1"
     inkscape:current-layer="svg1" />
  <path
     d="M480-480Zm0 400q-83 0-156-31.5T197-197q-54-54-85.5-127T80-480q0-83 31.5-156T197-763q54-54 127-85.5T480-880q43 0 83 8.5t77 24.5v90q-35-20-75.5-31.5T480-800q-133 0-226.5 93.5T160-480q0 133 93.5 226.5T480-160q133 0 226.5-93.5T800-480q0-32-6.5-62T776-600h86q9 29 13.5 58.5T880-480q0 83-31.5 156T763-197q-54 54-127 85.5T480-80Zm320-600v-80h-80v-80h80v-80h80v80h80v80h-80v80h-80ZM620-520q25 0 42.5-17.5T680-580q0-25-17.5-42.5T620-640q-25 0-42.5 17.5T560-580q0 25 17.5 42.5T620-520Zm-280 0q25 0 42.5-17.5T400-580q0-25-17.5-42.5T340-640q-25 0-42.5 17.5T280-580q0 25 17.5 42.5T340-520Zm263.5 221.5Q659-337 684-400H276q25 63 80.5 101.5T480-260q68 0 123.5-38.5Z"
     id="path1"
     style="fill:#ececec" />
</svg>
