<?xml version="1.0" encoding="UTF-8" standalone="no"?>
<svg
   height="48px"
   viewBox="0 -960 960 960"
   width="48px"
   fill="#000000"
   version="1.1"
   id="svg1"
   sodipodi:docname="file_save_124dp_000000_FILL0_wght600_GRAD0_opsz48_bright.svg"
   inkscape:version="1.4.3 (0d15f75042, 2025-12-25)"
   xmlns:inkscape="http://www.inkscape.org/namespaces/inkscape"
   xmlns:sodipodi="http://sodipodi.sourceforge.net/DTD/sodipodi-0.dtd"
   xmlns="http://www.w3.org/2000/svg"
   xmlns:svg="http://www.w3.org/2000/svg">
  <defs
     id="defs1" />
  <sodipodi:namedview
     id="namedview1"
     pagecolor="#ffffff"
     bordercolor="#000000"
     borderopacity="0.25"
     inkscape:showpageshadow="2"
     inkscape:pageopacity="0.0"
     inkscape:pagecheckerboard="0"
     inkscape:deskcolor="#d1d1d1"
     inkscape:zoom="38.1875"
     inkscape:cx="24"
     inkscape:cy="24"
     inkscape:window-width="3840"
     inkscape:window-height="2088"
     inkscape:window-x="0"
     inkscape:window-y="0"
     inkscape:window-maximized="1"
     inkscape:current-layer="svg1" />
  <path
     d="m730-124 147.13-147.13-42-42L760-238v-181h-60v181l-74.83-75.13-41.74 42L730-124ZM580 0v-60h300V0H580ZM229.61-150.39q-32.51 0-55.86-23.36-23.36-23.35-23.36-55.86v-580.78q0-32.51 23.36-55.86 23.35-23.36 55.86-23.36h307.13l232.87 232.87V-479h-79.22v-137.46H496.61v-193.93h-267v580.78H520v79.22H229.61Zm0-79.22v-580.78 580.78Z"
     id="path1"
     style="fill:#ececec" />
</svg>
