<?xml version="1.0" encoding="UTF-8" standalone="no"?>
<svg
   height="48px"
   viewBox="0 -960 960 960"
   width="48px"
   fill="#000000"
   version="1.1"
   id="svg1"
   sodipodi:docname="list_numbered_bright.svg"
   inkscape:version="1.4.3 (0d15f75042, 2025-12-25)"
   xmlns:inkscape="http://www.inkscape.org/namespaces/inkscape"
   xmlns:sodipodi="http://sodipodi.sourceforge.net/DTD/sodipodi-0.dtd"
   xmlns="http://www.w3.org/2000/svg"
   xmlns:svg="http://www.w3.org/2000/svg">
  <defs
     id="defs1" />
  <sodipodi:namedview
     id="namedview1"
     pagecolor="#ffffff"
     bordercolor="#000000"
     borderopacity="0.25"
     inkscape:showpageshadow="2"
     inkscape:pageopacity="0.0"
     inkscape:pagecheckerboard="0"
     inkscape:deskcolor="#d1d1d1"
     inkscape:zoom="38.1875"
     inkscape:cx="24"
     inkscape:cy="24"
     inkscape:window-width="3840"
     inkscape:window-height="2088"
     inkscape:window-x="0"
     inkscape:window-y="0"
     inkscape:window-maximized="1"
     inkscape:current-layer="svg1" />
  <path
     d="M116.04-65.87v-68.48h100v-25.48h-60v-60h60v-26.04h-100v-68.48H240q18.92 0 31.72 12.8 12.8 12.8 12.8 31.72v35.48q0 18.92-12.8 31.72-12.8 12.8-31.72 12.8 18.92 0 31.72 12.85 12.8 12.84 12.8 31.11v36.04q0 18.69-12.8 31.32-12.8 12.64-31.72 12.64H116.04Zm0-290.17v-110q0-18.28 12.64-31.12T160-510h56.04v-26.04h-100v-68.48H240q18.92 0 31.72 12.8 12.8 12.8 12.8 31.72v65.48q0 18.92-12.8 31.72Q258.92-450 240-450h-55.48v25.48h100v68.48H116.04Zm60-290.18v-183.95h-60v-64.53h128.48v248.48h-68.48Zm197.48 446.83v-79.22H854.7v79.22H373.52Zm0-243v-79.22H854.7v79.22H373.52Zm0-243v-79.22H854.7v79.22H373.52Z"
     id="path1"
     style="fill:#ececec" />
</svg>
