<?xml version="1.0" encoding="UTF-8" standalone="no"?>
<svg
   height="48px"
   viewBox="0 -960 960 960"
   width="48px"
   fill="#000000"
   version="1.1"
   id="svg1"
   sodipodi:docname="save_bright.svg"
   inkscape:version="1.4.3 (0d15f75042, 2025-12-25)"
   xmlns:inkscape="http://www.inkscape.org/namespaces/inkscape"
   xmlns:sodipodi="http://sodipodi.sourceforge.net/DTD/sodipodi-0.dtd"
   xmlns="http://www.w3.org/2000/svg"
   xmlns:svg="http://www.w3.org/2000/svg">
  <defs
     id="defs1" />
  <sodipodi:namedview
     id="namedview1"
     pagecolor="#ffffff"
     bordercolor="#000000"
     borderopacity="0.25"
     inkscape:showpageshadow="2"
     inkscape:pageopacity="0.0"
     inkscape:pagecheckerboard="0"
     inkscape:deskcolor="#d1d1d1"
     inkscape:zoom="38.1875"
     inkscape:cx="24"
     inkscape:cy="24"
     inkscape:window-width="3840"
     inkscape:window-height="2088"
     inkscape:window-x="0"
     inkscape:window-y="0"
     inkscape:window-maximized="1"
     inkscape:current-layer="svg1" />
  <path
     d="M854.7-689.22v504.13q0 32.51-23.53 55.87-23.52 23.35-56.26 23.35H185.09q-32.51 0-55.87-23.35-23.35-23.36-23.35-55.87v-589.82q0-32.74 23.35-56.26 23.36-23.53 55.87-23.53h504.13L854.7-689.22Zm-79.79 35.48L653.74-774.91H185.09v589.82h589.82v-468.65ZM479.76-250.09q43.24 0 73.74-30.26 30.5-30.27 30.5-73.5 0-43.24-30.26-73.74-30.27-30.5-73.5-30.5-43.24 0-73.74 30.27-30.5 30.26-30.5 73.5 0 43.23 30.26 73.73 30.27 30.5 73.5 30.5ZM238.09-578.91h358v-143h-358v143Zm-53-74.83v468.65-589.82 121.17Z"
     id="path1"
     style="fill:#ececec" />
</svg>
