<?xml version="1.0" encoding="UTF-8" standalone="no"?>
<svg
   height="48px"
   viewBox="0 -960 960 960"
   width="48px"
   fill="#000000"
   version="1.1"
   id="svg1"
   sodipodi:docname="save_as_124dp_000000_FILL0_wght600_GRAD0_opsz48_bright.svg"
   inkscape:version="1.4.3 (0d15f75042, 2025-12-25)"
   xmlns:inkscape="http://www.inkscape.org/namespaces/inkscape"
   xmlns:sodipodi="http://sodipodi.sourceforge.net/DTD/sodipodi-0.dtd"
   xmlns="http://www.w3.org/2000/svg"
   xmlns:svg="http://www.w3.org/2000/svg">
  <defs
     id="defs1" />
  <sodipodi:namedview
     id="namedview1"
     pagecolor="#ffffff"
     bordercolor="#000000"
     borderopacity="0.25"
     inkscape:showpageshadow="2"
     inkscape:pageopacity="0.0"
     inkscape:pagecheckerboard="0"
     inkscape:deskcolor="#d1d1d1"
     inkscape:zoom="38.1875"
     inkscape:cx="24"
     inkscape:cy="24"
     inkscape:window-width="3840"
     inkscape:window-height="2088"
     inkscape:window-x="0"
     inkscape:window-y="0"
     inkscape:window-maximized="1"
     inkscape:current-layer="svg1" />
  <path
     d="M185.09-105.87q-32.68 0-55.95-23.27-23.27-23.27-23.27-55.95v-589.82q0-32.91 23.27-56.35 23.27-23.44 55.95-23.44h504.13L854.7-689.22v244.79q-19.09-10.83-39.18-14.61-20.09-3.79-40.61-.96v-193.74L653.74-774.91H185.09v589.82h272.65v79.22H185.09Zm0-669.04v589.82-589.82ZM517.74-25.87v-134.87L741-383q10.2-10.5 22.67-15.16 12.48-4.67 25.55-4.67 13.13 0 25.85 5.35t22.8 15.48l37 37q10.03 10.13 14.93 22.64t4.9 25.01q0 13.26-5.35 26.18-5.35 12.91-15.39 23.04L652.61-25.87H517.74Zm308.48-271.48-37-37 37 37Zm-240 203h38l119.3-120.17-18-19.07-19-18.06-120.3 119.17v38.13Zm139.3-139.3-19-18 37 37-18-19ZM238.09-578.91h358v-143h-358v143ZM480-250.09q15.13 0 29.54-3 14.42-3 27.11-10.56l32.78-33.76q7.57-12.72 11.07-26.85t3.5-29.83q0-43.33-30.26-73.66-30.27-30.34-73.5-30.34-43.24 0-73.74 30.27-30.5 30.26-30.5 73.5 0 43.23 30.33 73.73 30.34 30.5 73.67 30.5Z"
     id="path1"
     style="fill:#ececec" />
</svg>
