<?xml version="1.0" encoding="UTF-8" standalone="no"?>
<svg
   height="48px"
   viewBox="0 -960 960 960"
   width="48px"
   fill="#000000"
   version="1.1"
   id="svg1"
   sodipodi:docname="search_124dp_000000_FILL0_wght600_GRAD0_opsz48_bright.svg"
   inkscape:version="1.4.3 (0d15f75042, 2025-12-25)"
   xmlns:inkscape="http://www.inkscape.org/namespaces/inkscape"
   xmlns:sodipodi="http://sodipodi.sourceforge.net/DTD/sodipodi-0.dtd"
   xmlns="http://www.w3.org/2000/svg"
   xmlns:svg="http://www.w3.org/2000/svg">
  <defs
     id="defs1" />
  <sodipodi:namedview
     id="namedview1"
     pagecolor="#ffffff"
     bordercolor="#000000"
     borderopacity="0.25"
     inkscape:showpageshadow="2"
     inkscape:pageopacity="0.0"
     inkscape:pagecheckerboard="0"
     inkscape:deskcolor="#d1d1d1"
     inkscape:zoom="38.1875"
     inkscape:cx="24"
     inkscape:cy="24"
     inkscape:window-width="3840"
     inkscape:window-height="2088"
     inkscape:window-x="0"
     inkscape:window-y="0"
     inkscape:window-maximized="1"
     inkscape:current-layer="svg1" />
  <path
     d="M795.43-105.17 529.04-371q-29.43 24.26-69.11 37.94-39.67 13.67-85.32 13.67-112.12 0-189.87-77.83Q107-475.04 107-585q0-109.96 77.83-187.78 77.82-77.83 188.28-77.83 110.46 0 187.78 77.83 77.33 77.82 77.33 187.93 0 43.98-13.15 83.13-13.16 39.15-39.46 73.59L853-162.74l-57.57 57.57ZM373.81-398.61q77.66 0 131.42-54.53Q559-507.67 559-585q0-77.33-53.85-131.86-53.85-54.53-131.34-54.53-78.33 0-132.96 54.53-54.63 54.53-54.63 131.86 0 77.33 54.55 131.86 54.55 54.53 133.04 54.53Z"
     id="path1"
     style="fill:#ececec" />
</svg>
