<?xml version="1.0" encoding="UTF-8" standalone="no"?>
<svg
   height="48px"
   viewBox="0 -960 960 960"
   width="48px"
   fill="#000000"
   version="1.1"
   id="svg1"
   sodipodi:docname="update_124dp_000000_FILL0_wght600_GRAD0_opsz48_bright.svg"
   inkscape:version="1.4.3 (0d15f75042, 2025-12-25)"
   xmlns:inkscape="http://www.inkscape.org/namespaces/inkscape"
   xmlns:sodipodi="http://sodipodi.sourceforge.net/DTD/sodipodi-0.dtd"
   xmlns="http://www.w3.org/2000/svg"
   xmlns:svg="http://www.w3.org/2000/svg">
  <defs
     id="defs1" />
  <sodipodi:namedview
     id="namedview1"
     pagecolor="#ffffff"
     bordercolor="#000000"
     borderopacity="0.25"
     inkscape:showpageshadow="2"
     inkscape:pageopacity="0.0"
     inkscape:pagecheckerboard="0"
     inkscape:deskcolor="#d1d1d1"
     inkscape:zoom="38.1875"
     inkscape:cx="24"
     inkscape:cy="24"
     inkscape:window-width="3840"
     inkscape:window-height="2088"
     inkscape:window-x="0"
     inkscape:window-y="0"
     inkscape:window-maximized="1"
     inkscape:current-layer="svg1" />
  <path
     d="M483.46-105.87q-77.53 0-146.45-29.63-68.92-29.63-120.12-80.61-51.19-50.98-81.11-119.52-29.91-68.54-29.91-146.37t29.91-145.37q29.92-67.54 81.11-118.02 51.2-50.48 120.15-79.89Q406-854.7 483.57-854.7q80.56 0 152.63 34.44 72.06 34.43 126.32 94.3v-99.78h66.22V-607H608.43v-67.35h93.13q-43.02-46.06-99.05-73.31-56.03-27.25-118.94-27.25-123.31 0-210.61 83.98-87.31 83.99-87.31 205.83 0 124.84 86.52 212.43 86.51 87.58 211.4 87.58 122.17 0 206.69-86.5 84.51-86.5 85.22-209.41h79.22q0 156.22-107.96 265.67-107.96 109.46-263.28 109.46Zm118.71-207.74-154-152V-683h66.22v189l135.87 132.3-48.09 48.09Z"
     id="path1"
     style="fill:#ececec" />
</svg>
